<?xml version="1.0" encoding="UTF-8"?>
<svg id="Capa_2" data-name="Capa 2" xmlns="http://www.w3.org/2000/svg" viewBox="0 0 149.29 118.94">
  <defs>
    <style>
      .cls-1 {
        fill: #6ed866;
      }
    </style>
  </defs>
  <g id="Layer_1" data-name="Layer 1">
    <g>
      <g>
        <path d="m144.48,61.15c-1.83-2.7-4.35-4.88-7.56-6.53-3.21-1.65-7.33-2.47-12.37-2.47-3.94,0-7.83,1.01-11.68,3.02-3.85,2.02-6.83,5.04-8.93,9.07-2.11-4.03-4.81-7.05-8.11-9.07-3.3-2.01-7.38-3.02-12.23-3.02-2.93,0-5.61.44-8.04,1.31-2.43.87-4.54,1.92-6.32,3.16-1.79,1.24-3.25,2.54-4.4,3.92-1.15,1.37-1.86,2.52-2.13,3.44h-.27v-10.17h-11.54v65.14h12.37v-33.81c0-3.66.46-6.85,1.37-9.55.91-2.7,2.15-4.92,3.71-6.67,1.56-1.74,3.37-3.04,5.43-3.92,2.06-.87,4.19-1.31,6.39-1.31,3.02,0,5.43.53,7.21,1.58,1.79,1.05,3.16,2.52,4.12,4.4.96,1.88,1.6,4.1,1.92,6.67.32,2.57.48,5.41.48,8.52v34.08h12.37v-35.59c0-5.77,1.28-10.49,3.85-14.16,2.56-3.66,6.82-5.5,12.78-5.5,3.02,0,5.45.53,7.28,1.58,1.83,1.05,3.25,2.45,4.26,4.19,1.01,1.74,1.67,3.76,1.99,6.05.32,2.29.48,4.67.48,7.15v36.28h12.37v-37.93c0-3.66-.34-7.22-1.03-10.65-.69-3.44-1.95-6.5-3.78-9.21Z"/>
        <g>
          <polygon points="92.52 7.84 84.13 0 62.19 23.46 62.19 3.92 50.71 3.92 50.71 43.74 91.53 43.74 91.53 32.26 69.68 32.26 92.52 7.84"/>
          <polygon points=".99 54.39 .8 54.39 .8 65.87 .99 65.87 22.84 65.87 0 90.29 8.38 98.13 30.14 74.87 30.14 94.21 30.33 94.21 41.62 94.21 41.81 94.21 41.81 54.39 41.62 54.39 .99 54.39"/>
        </g>
      </g>
      <polygon class="cls-1" points="0 7.84 8.38 0 30.33 23.46 30.33 3.92 41.81 3.92 41.81 43.74 .99 43.74 .99 32.26 22.84 32.26 0 7.84"/>
    </g>
  </g>
</svg>